<svg viewBox="0 0 91 91" xml:space="preserve" xmlns="http://www.w3.org/2000/svg"><g fill="#e3225c" class="fill-010101"><path d="M51.873 27.65H33.385v25.318h15.087v.001h7.978a3.981 3.981 0 0 0 3.977-3.975v-12.17l-8.553-.001V27.65zM36.785 49.568V31.051h11.688v5.772h-.001v12.745H36.785zm20.24-9.343v8.771a.582.582 0 0 1-.576.574h-4.576v-9.346l5.152.001z"></path><path d="M38.57 44.604h3.4v2.828h-3.4zM38.57 38.946h3.4v2.829h-3.4zM38.57 33.289h3.4v2.829h-3.4zM43.285 38.946h3.4v2.829h-3.4zM43.285 44.604h3.4v2.828h-3.4zM43.285 33.289h3.4v2.829h-3.4z"></path><path d="M46.223 17.293c-12.951 0-23.488 10.537-23.488 23.488 0 10.587 7.275 19.985 17.428 22.695l4.471 11.758c.252.66.884 1.096 1.59 1.096h.01a1.7 1.7 0 0 0 1.586-1.116l4.277-11.688c10.263-2.645 17.615-12.061 17.615-22.745-.001-12.951-10.538-23.488-23.489-23.488zm4.235 43.127a1.699 1.699 0 0 0-1.24 1.078l-3.026 8.27-3.169-8.333a1.7 1.7 0 0 0-1.217-1.055c-9.08-2.036-15.671-10.278-15.671-19.599 0-11.076 9.012-20.088 20.088-20.088s20.088 9.012 20.088 20.088c0 9.411-6.667 17.67-15.853 19.639z"></path></g></svg>